<mxfile host="app.diagrams.net" modified="2024-05-24T16:46:00.258Z" agent="Mozilla/5.0 (Windows NT 10.0; Win64; x64) AppleWebKit/537.36 (KHTML, like Gecko) Chrome/123.0.0.0 Safari/537.36 OPR/109.0.0.0 (Edition Yx GX 03)" etag="TQ8E3kNHKBr2tJJMVpSQ" version="24.4.8" type="device" pages="5">
  <diagram id="RNyiHvsn3JSbKHXOfiNb" name="Диаграмма вариантов использования">
    <mxGraphModel dx="1652" dy="1843" grid="1" gridSize="10" guides="1" tooltips="1" connect="1" arrows="1" fold="1" page="1" pageScale="1" pageWidth="1169" pageHeight="1654" math="0" shadow="0">
      <root>
        <mxCell id="0" />
        <mxCell id="1" parent="0" />
        <mxCell id="wqbfkK2eyEjfnoJ2G-vP-2" value="&lt;font style=&quot;font-size: 30px;&quot;&gt;Use cases&lt;/font&gt;" style="shape=umlFrame;whiteSpace=wrap;html=1;pointerEvents=0;width=200;height=120;" parent="1" vertex="1">
          <mxGeometry x="40" y="40" width="1080" height="1560" as="geometry" />
        </mxCell>
        <mxCell id="wqbfkK2eyEjfnoJ2G-vP-3" value="" style="swimlane;startSize=0;" parent="1" vertex="1">
          <mxGeometry x="280" y="320" width="600" height="960" as="geometry">
            <mxRectangle x="300" y="70" width="50" height="40" as="alternateBounds" />
          </mxGeometry>
        </mxCell>
        <mxCell id="X7RTlZl4MFBYNRGvcZKG-4" value="&lt;font style=&quot;font-size: 24px;&quot;&gt;Выбор блюд&lt;/font&gt;" style="ellipse;whiteSpace=wrap;html=1;" vertex="1" parent="wqbfkK2eyEjfnoJ2G-vP-3">
          <mxGeometry x="40" y="422.5" width="200" height="115" as="geometry" />
        </mxCell>
        <mxCell id="X7RTlZl4MFBYNRGvcZKG-13" value="&lt;font style=&quot;font-size: 24px;&quot;&gt;Оформление заказа&lt;/font&gt;" style="ellipse;whiteSpace=wrap;html=1;" vertex="1" parent="wqbfkK2eyEjfnoJ2G-vP-3">
          <mxGeometry x="80" y="660" width="200" height="115" as="geometry" />
        </mxCell>
        <mxCell id="X7RTlZl4MFBYNRGvcZKG-14" value="&lt;font style=&quot;font-size: 24px;&quot;&gt;Оплата заказа&lt;/font&gt;" style="ellipse;whiteSpace=wrap;html=1;" vertex="1" parent="wqbfkK2eyEjfnoJ2G-vP-3">
          <mxGeometry x="80" y="180" width="200" height="115" as="geometry" />
        </mxCell>
        <mxCell id="X7RTlZl4MFBYNRGvcZKG-19" value="&lt;font style=&quot;font-size: 24px;&quot;&gt;Система доставки еды&lt;/font&gt;&lt;div&gt;&lt;font style=&quot;font-size: 24px;&quot;&gt;&amp;nbsp;через приложение&lt;/font&gt;&lt;/div&gt;" style="text;align=center;fontStyle=1;verticalAlign=middle;spacingLeft=3;spacingRight=3;strokeColor=none;rotatable=0;points=[[0,0.5],[1,0.5]];portConstraint=eastwest;html=1;" vertex="1" parent="wqbfkK2eyEjfnoJ2G-vP-3">
          <mxGeometry x="160" width="280" height="80" as="geometry" />
        </mxCell>
        <mxCell id="X7RTlZl4MFBYNRGvcZKG-22" value="" style="endArrow=none;html=1;rounded=0;" edge="1" parent="wqbfkK2eyEjfnoJ2G-vP-3" target="X7RTlZl4MFBYNRGvcZKG-3">
          <mxGeometry width="50" height="50" relative="1" as="geometry">
            <mxPoint x="280" y="720" as="sourcePoint" />
            <mxPoint x="330" y="670" as="targetPoint" />
          </mxGeometry>
        </mxCell>
        <mxCell id="X7RTlZl4MFBYNRGvcZKG-23" value="&lt;font style=&quot;font-size: 24px;&quot;&gt;Подтверждение заказа&lt;/font&gt;" style="edgeLabel;html=1;align=center;verticalAlign=middle;resizable=0;points=[];rotation=0;" vertex="1" connectable="0" parent="X7RTlZl4MFBYNRGvcZKG-22">
          <mxGeometry x="-0.0204" y="-2" relative="1" as="geometry">
            <mxPoint x="-25" y="-8" as="offset" />
          </mxGeometry>
        </mxCell>
        <mxCell id="X7RTlZl4MFBYNRGvcZKG-26" value="" style="endArrow=block;dashed=1;endFill=0;endSize=12;html=1;rounded=0;exitX=0.5;exitY=1;exitDx=0;exitDy=0;entryX=0.5;entryY=0;entryDx=0;entryDy=0;" edge="1" parent="wqbfkK2eyEjfnoJ2G-vP-3" source="X7RTlZl4MFBYNRGvcZKG-4" target="X7RTlZl4MFBYNRGvcZKG-13">
          <mxGeometry width="160" relative="1" as="geometry">
            <mxPoint x="210" y="600" as="sourcePoint" />
            <mxPoint x="370" y="600" as="targetPoint" />
          </mxGeometry>
        </mxCell>
        <mxCell id="X7RTlZl4MFBYNRGvcZKG-27" value="&lt;font style=&quot;font-size: 24px;&quot;&gt;зависимость&lt;/font&gt;" style="edgeLabel;html=1;align=center;verticalAlign=middle;resizable=0;points=[];rotation=0;" vertex="1" connectable="0" parent="X7RTlZl4MFBYNRGvcZKG-26">
          <mxGeometry x="-0.1434" relative="1" as="geometry">
            <mxPoint as="offset" />
          </mxGeometry>
        </mxCell>
        <mxCell id="X7RTlZl4MFBYNRGvcZKG-28" value="&lt;font style=&quot;font-size: 24px;&quot;&gt;Доставка заказа&lt;/font&gt;" style="ellipse;whiteSpace=wrap;html=1;" vertex="1" parent="wqbfkK2eyEjfnoJ2G-vP-3">
          <mxGeometry x="370" y="280" width="200" height="115" as="geometry" />
        </mxCell>
        <mxCell id="X7RTlZl4MFBYNRGvcZKG-30" value="&lt;font style=&quot;font-size: 24px;&quot;&gt;Сборка заказа&lt;/font&gt;&lt;div&gt;&lt;font style=&quot;font-size: 24px;&quot;&gt;и поиск курьера&lt;/font&gt;&lt;/div&gt;" style="ellipse;whiteSpace=wrap;html=1;" vertex="1" parent="wqbfkK2eyEjfnoJ2G-vP-3">
          <mxGeometry x="370" y="560" width="200" height="115" as="geometry" />
        </mxCell>
        <mxCell id="X7RTlZl4MFBYNRGvcZKG-32" value="&lt;font style=&quot;font-size: 24px;&quot;&gt;зависимость&lt;/font&gt;" style="endArrow=open;endSize=12;dashed=1;html=1;rounded=0;exitX=0.5;exitY=0;exitDx=0;exitDy=0;entryX=0.5;entryY=1;entryDx=0;entryDy=0;" edge="1" parent="wqbfkK2eyEjfnoJ2G-vP-3" source="X7RTlZl4MFBYNRGvcZKG-30" target="X7RTlZl4MFBYNRGvcZKG-28">
          <mxGeometry width="160" relative="1" as="geometry">
            <mxPoint x="490" y="520" as="sourcePoint" />
            <mxPoint x="650" y="520" as="targetPoint" />
          </mxGeometry>
        </mxCell>
        <mxCell id="X7RTlZl4MFBYNRGvcZKG-1" value="&lt;font style=&quot;font-size: 24px;&quot;&gt;Клиент&lt;/font&gt;" style="shape=umlActor;verticalLabelPosition=bottom;verticalAlign=top;html=1;" vertex="1" parent="1">
          <mxGeometry x="80" y="700" width="100" height="200" as="geometry" />
        </mxCell>
        <mxCell id="X7RTlZl4MFBYNRGvcZKG-2" value="&lt;font style=&quot;font-size: 24px;&quot;&gt;Курьер&lt;/font&gt;&lt;div&gt;&lt;br&gt;&lt;/div&gt;" style="shape=umlActor;verticalLabelPosition=bottom;verticalAlign=top;html=1;" vertex="1" parent="1">
          <mxGeometry x="980" y="320" width="100" height="200" as="geometry" />
        </mxCell>
        <mxCell id="X7RTlZl4MFBYNRGvcZKG-3" value="&lt;font style=&quot;font-size: 24px;&quot;&gt;Приложение для&lt;/font&gt;&lt;div&gt;&lt;font style=&quot;font-size: 24px;&quot;&gt;доставки еды&lt;/font&gt;&lt;/div&gt;" style="shape=umlActor;verticalLabelPosition=bottom;verticalAlign=top;html=1;" vertex="1" parent="1">
          <mxGeometry x="980" y="1080" width="100" height="200" as="geometry" />
        </mxCell>
        <mxCell id="X7RTlZl4MFBYNRGvcZKG-12" value="" style="endArrow=none;html=1;rounded=0;entryX=0;entryY=0.5;entryDx=0;entryDy=0;" edge="1" parent="1" source="X7RTlZl4MFBYNRGvcZKG-1" target="X7RTlZl4MFBYNRGvcZKG-4">
          <mxGeometry width="50" height="50" relative="1" as="geometry">
            <mxPoint x="230" y="852" as="sourcePoint" />
            <mxPoint x="280" y="802" as="targetPoint" />
          </mxGeometry>
        </mxCell>
        <mxCell id="X7RTlZl4MFBYNRGvcZKG-17" value="" style="endArrow=none;html=1;rounded=0;entryX=0;entryY=1;entryDx=0;entryDy=0;" edge="1" parent="1" source="X7RTlZl4MFBYNRGvcZKG-1" target="X7RTlZl4MFBYNRGvcZKG-14">
          <mxGeometry width="50" height="50" relative="1" as="geometry">
            <mxPoint x="180" y="800" as="sourcePoint" />
            <mxPoint x="230" y="750" as="targetPoint" />
          </mxGeometry>
        </mxCell>
        <mxCell id="X7RTlZl4MFBYNRGvcZKG-18" value="" style="endArrow=none;html=1;rounded=0;exitX=0;exitY=0;exitDx=0;exitDy=0;" edge="1" parent="1" source="X7RTlZl4MFBYNRGvcZKG-13" target="X7RTlZl4MFBYNRGvcZKG-1">
          <mxGeometry width="50" height="50" relative="1" as="geometry">
            <mxPoint x="180" y="850" as="sourcePoint" />
            <mxPoint x="180" y="800" as="targetPoint" />
          </mxGeometry>
        </mxCell>
        <mxCell id="X7RTlZl4MFBYNRGvcZKG-20" value="" style="endArrow=none;html=1;rounded=0;exitX=1;exitY=0.5;exitDx=0;exitDy=0;" edge="1" parent="1" source="X7RTlZl4MFBYNRGvcZKG-14" target="X7RTlZl4MFBYNRGvcZKG-2">
          <mxGeometry width="50" height="50" relative="1" as="geometry">
            <mxPoint x="560" y="560" as="sourcePoint" />
            <mxPoint x="610" y="510" as="targetPoint" />
          </mxGeometry>
        </mxCell>
        <mxCell id="X7RTlZl4MFBYNRGvcZKG-21" value="&lt;font style=&quot;font-size: 24px;&quot;&gt;Прием оплаты&lt;/font&gt;" style="edgeLabel;html=1;align=center;verticalAlign=middle;resizable=0;points=[];rotation=0;" vertex="1" connectable="0" parent="X7RTlZl4MFBYNRGvcZKG-20">
          <mxGeometry x="-0.1065" y="-2" relative="1" as="geometry">
            <mxPoint y="-4" as="offset" />
          </mxGeometry>
        </mxCell>
        <mxCell id="X7RTlZl4MFBYNRGvcZKG-29" value="" style="endArrow=none;html=1;rounded=0;exitX=1;exitY=0;exitDx=0;exitDy=0;" edge="1" parent="1" source="X7RTlZl4MFBYNRGvcZKG-28" target="X7RTlZl4MFBYNRGvcZKG-2">
          <mxGeometry width="50" height="50" relative="1" as="geometry">
            <mxPoint x="890" y="550" as="sourcePoint" />
            <mxPoint x="940" y="500" as="targetPoint" />
          </mxGeometry>
        </mxCell>
        <mxCell id="X7RTlZl4MFBYNRGvcZKG-31" value="" style="endArrow=none;html=1;rounded=0;exitX=1;exitY=1;exitDx=0;exitDy=0;" edge="1" parent="1" source="X7RTlZl4MFBYNRGvcZKG-30" target="X7RTlZl4MFBYNRGvcZKG-3">
          <mxGeometry width="50" height="50" relative="1" as="geometry">
            <mxPoint x="760" y="1060" as="sourcePoint" />
            <mxPoint x="810" y="1010" as="targetPoint" />
          </mxGeometry>
        </mxCell>
      </root>
    </mxGraphModel>
  </diagram>
  <diagram id="G9vaexUMAiHVjo127bpS" name="Диаграмма последовательности">
    <mxGraphModel dx="1239" dy="1383" grid="1" gridSize="10" guides="1" tooltips="1" connect="1" arrows="1" fold="1" page="1" pageScale="1" pageWidth="1169" pageHeight="1654" math="0" shadow="0">
      <root>
        <mxCell id="0" />
        <mxCell id="1" parent="0" />
        <mxCell id="K_4vhsPOtHHyFVv82Tzt-2" value="&lt;font style=&quot;font-size: 24px;&quot;&gt;:Клиент&lt;/font&gt;" style="rounded=0;whiteSpace=wrap;html=1;" vertex="1" parent="1">
          <mxGeometry x="80" y="440" width="200" height="120" as="geometry" />
        </mxCell>
        <mxCell id="K_4vhsPOtHHyFVv82Tzt-4" value="&lt;font style=&quot;font-size: 24px;&quot;&gt;:Курьер&lt;/font&gt;" style="rounded=0;whiteSpace=wrap;html=1;" vertex="1" parent="1">
          <mxGeometry x="480" y="440" width="200" height="120" as="geometry" />
        </mxCell>
        <mxCell id="K_4vhsPOtHHyFVv82Tzt-5" value="&lt;font style=&quot;font-size: 24px;&quot;&gt;:Приложение&lt;/font&gt;" style="rounded=0;whiteSpace=wrap;html=1;" vertex="1" parent="1">
          <mxGeometry x="880" y="440" width="200" height="120" as="geometry" />
        </mxCell>
        <mxCell id="K_4vhsPOtHHyFVv82Tzt-6" value="" style="endArrow=none;dashed=1;html=1;dashPattern=1 3;strokeWidth=2;rounded=0;entryX=0.5;entryY=1;entryDx=0;entryDy=0;" edge="1" parent="1" target="K_4vhsPOtHHyFVv82Tzt-2">
          <mxGeometry width="50" height="50" relative="1" as="geometry">
            <mxPoint x="180" y="1000" as="sourcePoint" />
            <mxPoint x="720" y="550" as="targetPoint" />
          </mxGeometry>
        </mxCell>
        <mxCell id="K_4vhsPOtHHyFVv82Tzt-7" value="" style="endArrow=none;dashed=1;html=1;dashPattern=1 3;strokeWidth=2;rounded=0;entryX=0.5;entryY=1;entryDx=0;entryDy=0;" edge="1" parent="1">
          <mxGeometry width="50" height="50" relative="1" as="geometry">
            <mxPoint x="579.1700000000001" y="1000" as="sourcePoint" />
            <mxPoint x="579.1700000000001" y="560" as="targetPoint" />
          </mxGeometry>
        </mxCell>
        <mxCell id="K_4vhsPOtHHyFVv82Tzt-8" value="" style="endArrow=none;dashed=1;html=1;dashPattern=1 3;strokeWidth=2;rounded=0;entryX=0.5;entryY=1;entryDx=0;entryDy=0;" edge="1" parent="1">
          <mxGeometry width="50" height="50" relative="1" as="geometry">
            <mxPoint x="979.17" y="1000" as="sourcePoint" />
            <mxPoint x="979.17" y="560" as="targetPoint" />
          </mxGeometry>
        </mxCell>
        <mxCell id="K_4vhsPOtHHyFVv82Tzt-9" value="" style="endArrow=classic;html=1;rounded=0;" edge="1" parent="1">
          <mxGeometry width="50" height="50" relative="1" as="geometry">
            <mxPoint x="180" y="640" as="sourcePoint" />
            <mxPoint x="980" y="640" as="targetPoint" />
          </mxGeometry>
        </mxCell>
        <mxCell id="K_4vhsPOtHHyFVv82Tzt-10" value="&lt;font style=&quot;font-size: 14px;&quot;&gt;Оформляет и оплачивает заказ&lt;/font&gt;" style="text;align=center;fontStyle=1;verticalAlign=middle;spacingLeft=3;spacingRight=3;strokeColor=none;rotatable=0;points=[[0,0.5],[1,0.5]];portConstraint=eastwest;html=1;" vertex="1" parent="1">
          <mxGeometry x="350" y="590" width="80" height="26" as="geometry" />
        </mxCell>
        <mxCell id="K_4vhsPOtHHyFVv82Tzt-11" value="&lt;font style=&quot;font-size: 14px;&quot;&gt;Подтверждает заказ, передает ресторану,&lt;/font&gt;&lt;div&gt;&lt;font style=&quot;font-size: 14px;&quot;&gt;назначает курьера и выдает ему заказ&lt;/font&gt;&lt;/div&gt;" style="text;align=center;fontStyle=1;verticalAlign=middle;spacingLeft=3;spacingRight=3;strokeColor=none;rotatable=0;points=[[0,0.5],[1,0.5]];portConstraint=eastwest;html=1;" vertex="1" parent="1">
          <mxGeometry x="740" y="670" width="80" height="26" as="geometry" />
        </mxCell>
        <mxCell id="K_4vhsPOtHHyFVv82Tzt-12" value="" style="endArrow=classic;html=1;rounded=0;" edge="1" parent="1">
          <mxGeometry width="50" height="50" relative="1" as="geometry">
            <mxPoint x="980" y="720" as="sourcePoint" />
            <mxPoint x="580" y="720" as="targetPoint" />
          </mxGeometry>
        </mxCell>
        <mxCell id="K_4vhsPOtHHyFVv82Tzt-13" value="" style="endArrow=classic;html=1;rounded=0;" edge="1" parent="1">
          <mxGeometry width="50" height="50" relative="1" as="geometry">
            <mxPoint x="580" y="800" as="sourcePoint" />
            <mxPoint x="180" y="800" as="targetPoint" />
          </mxGeometry>
        </mxCell>
        <mxCell id="K_4vhsPOtHHyFVv82Tzt-14" value="&lt;span style=&quot;font-size: 14px;&quot;&gt;Доставка заказа&lt;/span&gt;" style="text;align=center;fontStyle=1;verticalAlign=middle;spacingLeft=3;spacingRight=3;strokeColor=none;rotatable=0;points=[[0,0.5],[1,0.5]];portConstraint=eastwest;html=1;" vertex="1" parent="1">
          <mxGeometry x="350" y="750" width="80" height="26" as="geometry" />
        </mxCell>
        <mxCell id="K_4vhsPOtHHyFVv82Tzt-15" value="" style="endArrow=classic;html=1;rounded=0;" edge="1" parent="1">
          <mxGeometry width="50" height="50" relative="1" as="geometry">
            <mxPoint x="580" y="880" as="sourcePoint" />
            <mxPoint x="980" y="880" as="targetPoint" />
          </mxGeometry>
        </mxCell>
        <mxCell id="K_4vhsPOtHHyFVv82Tzt-16" value="&lt;font style=&quot;font-size: 14px;&quot;&gt;Закрытие заказа&lt;/font&gt;" style="text;align=center;fontStyle=1;verticalAlign=middle;spacingLeft=3;spacingRight=3;strokeColor=none;rotatable=0;points=[[0,0.5],[1,0.5]];portConstraint=eastwest;html=1;" vertex="1" parent="1">
          <mxGeometry x="740" y="827" width="80" height="26" as="geometry" />
        </mxCell>
        <mxCell id="K_4vhsPOtHHyFVv82Tzt-17" value="" style="endArrow=classic;html=1;rounded=0;" edge="1" parent="1">
          <mxGeometry width="50" height="50" relative="1" as="geometry">
            <mxPoint x="180" y="960" as="sourcePoint" />
            <mxPoint x="980" y="960" as="targetPoint" />
          </mxGeometry>
        </mxCell>
        <mxCell id="K_4vhsPOtHHyFVv82Tzt-18" value="&lt;font style=&quot;font-size: 14px;&quot;&gt;Подтверждение получения заказа&lt;/font&gt;" style="text;align=center;fontStyle=1;verticalAlign=middle;spacingLeft=3;spacingRight=3;strokeColor=none;rotatable=0;points=[[0,0.5],[1,0.5]];portConstraint=eastwest;html=1;" vertex="1" parent="1">
          <mxGeometry x="350" y="910" width="80" height="26" as="geometry" />
        </mxCell>
      </root>
    </mxGraphModel>
  </diagram>
  <diagram name="Диаграмма состояний заказа" id="GkA0v80mf-mB7PMir02T">
    <mxGraphModel dx="1239" dy="1383" grid="1" gridSize="10" guides="1" tooltips="1" connect="1" arrows="1" fold="1" page="1" pageScale="1" pageWidth="1169" pageHeight="1654" math="0" shadow="0">
      <root>
        <mxCell id="0" />
        <mxCell id="1" parent="0" />
        <mxCell id="teliJcFGvKFgrDgk7aVS-27" value="" style="edgeStyle=orthogonalEdgeStyle;rounded=0;orthogonalLoop=1;jettySize=auto;html=1;" edge="1" parent="1">
          <mxGeometry relative="1" as="geometry">
            <mxPoint x="160" y="420" as="sourcePoint" />
            <mxPoint x="280" y="420" as="targetPoint" />
          </mxGeometry>
        </mxCell>
        <mxCell id="teliJcFGvKFgrDgk7aVS-28" style="edgeStyle=orthogonalEdgeStyle;rounded=0;orthogonalLoop=1;jettySize=auto;html=1;entryX=0;entryY=0.5;entryDx=0;entryDy=0;" edge="1" parent="1">
          <mxGeometry relative="1" as="geometry">
            <mxPoint x="400" y="420" as="sourcePoint" />
            <mxPoint x="520" y="420" as="targetPoint" />
          </mxGeometry>
        </mxCell>
        <mxCell id="teliJcFGvKFgrDgk7aVS-29" style="edgeStyle=orthogonalEdgeStyle;rounded=0;orthogonalLoop=1;jettySize=auto;html=1;entryX=0;entryY=0.5;entryDx=0;entryDy=0;" edge="1" parent="1">
          <mxGeometry relative="1" as="geometry">
            <mxPoint x="640" y="420" as="sourcePoint" />
            <mxPoint x="760" y="420" as="targetPoint" />
          </mxGeometry>
        </mxCell>
        <mxCell id="teliJcFGvKFgrDgk7aVS-30" style="edgeStyle=orthogonalEdgeStyle;rounded=0;orthogonalLoop=1;jettySize=auto;html=1;entryX=0;entryY=0.5;entryDx=0;entryDy=0;" edge="1" parent="1">
          <mxGeometry relative="1" as="geometry">
            <mxPoint x="880" y="420" as="sourcePoint" />
            <mxPoint x="1000" y="420" as="targetPoint" />
          </mxGeometry>
        </mxCell>
        <mxCell id="teliJcFGvKFgrDgk7aVS-18" style="edgeStyle=orthogonalEdgeStyle;rounded=0;orthogonalLoop=1;jettySize=auto;html=1;exitX=0.5;exitY=1;exitDx=0;exitDy=0;" edge="1" parent="1">
          <mxGeometry relative="1" as="geometry">
            <mxPoint x="820" y="450" as="sourcePoint" />
            <mxPoint x="820" y="450" as="targetPoint" />
          </mxGeometry>
        </mxCell>
        <mxCell id="teliJcFGvKFgrDgk7aVS-31" style="edgeStyle=orthogonalEdgeStyle;rounded=0;orthogonalLoop=1;jettySize=auto;html=1;entryX=0.5;entryY=1;entryDx=0;entryDy=0;" edge="1" parent="1" target="teliJcFGvKFgrDgk7aVS-22">
          <mxGeometry relative="1" as="geometry">
            <mxPoint x="1060" y="390" as="sourcePoint" />
          </mxGeometry>
        </mxCell>
        <mxCell id="teliJcFGvKFgrDgk7aVS-22" value="" style="ellipse;html=1;shape=endState;fillColor=#000000;strokeColor=#ff0000;" vertex="1" parent="1">
          <mxGeometry x="1045" y="300" width="30" height="30" as="geometry" />
        </mxCell>
        <mxCell id="teliJcFGvKFgrDgk7aVS-23" style="edgeStyle=orthogonalEdgeStyle;rounded=0;orthogonalLoop=1;jettySize=auto;html=1;exitX=0.5;exitY=1;exitDx=0;exitDy=0;" edge="1" parent="1">
          <mxGeometry relative="1" as="geometry">
            <mxPoint x="100" y="450" as="sourcePoint" />
            <mxPoint x="100" y="450" as="targetPoint" />
          </mxGeometry>
        </mxCell>
        <mxCell id="teliJcFGvKFgrDgk7aVS-24" value="" style="ellipse;html=1;shape=startState;fillColor=#000000;strokeColor=#ff0000;" vertex="1" parent="1">
          <mxGeometry x="85" y="300" width="30" height="30" as="geometry" />
        </mxCell>
        <mxCell id="teliJcFGvKFgrDgk7aVS-25" value="" style="edgeStyle=orthogonalEdgeStyle;html=1;verticalAlign=bottom;endArrow=open;endSize=8;strokeColor=#ff0000;rounded=0;" edge="1" source="teliJcFGvKFgrDgk7aVS-24" parent="1">
          <mxGeometry relative="1" as="geometry">
            <mxPoint x="100" y="390" as="targetPoint" />
          </mxGeometry>
        </mxCell>
        <mxCell id="teliJcFGvKFgrDgk7aVS-32" value="&lt;font style=&quot;font-size: 12px;&quot;&gt;Оплата заказа&lt;/font&gt;" style="text;strokeColor=none;fillColor=none;html=1;fontSize=24;fontStyle=1;verticalAlign=middle;align=center;" vertex="1" parent="1">
          <mxGeometry x="170" y="350" width="100" height="40" as="geometry" />
        </mxCell>
        <mxCell id="teliJcFGvKFgrDgk7aVS-33" value="&lt;font style=&quot;font-size: 12px;&quot;&gt;Приготовление&lt;/font&gt;&lt;span style=&quot;font-size: 12px; background-color: initial;&quot;&gt;&amp;nbsp;заказа&lt;/span&gt;" style="text;strokeColor=none;fillColor=none;html=1;fontSize=24;fontStyle=1;verticalAlign=middle;align=center;" vertex="1" parent="1">
          <mxGeometry x="410" y="350" width="100" height="40" as="geometry" />
        </mxCell>
        <mxCell id="teliJcFGvKFgrDgk7aVS-34" value="&lt;font style=&quot;font-size: 12px;&quot;&gt;Передача заказа курьеру&lt;/font&gt;" style="text;strokeColor=none;fillColor=none;html=1;fontSize=24;fontStyle=1;verticalAlign=middle;align=center;" vertex="1" parent="1">
          <mxGeometry x="650" y="350" width="100" height="40" as="geometry" />
        </mxCell>
        <mxCell id="teliJcFGvKFgrDgk7aVS-35" value="&lt;font style=&quot;font-size: 12px;&quot;&gt;Передача заказа клиенту&lt;/font&gt;" style="text;strokeColor=none;fillColor=none;html=1;fontSize=24;fontStyle=1;verticalAlign=middle;align=center;" vertex="1" parent="1">
          <mxGeometry x="890" y="350" width="100" height="40" as="geometry" />
        </mxCell>
        <mxCell id="teliJcFGvKFgrDgk7aVS-36" value="Создан" style="rounded=1;whiteSpace=wrap;html=1;" vertex="1" parent="1">
          <mxGeometry x="40" y="390" width="120" height="60" as="geometry" />
        </mxCell>
        <mxCell id="teliJcFGvKFgrDgk7aVS-37" value="В обработке" style="rounded=1;whiteSpace=wrap;html=1;" vertex="1" parent="1">
          <mxGeometry x="280" y="390" width="120" height="60" as="geometry" />
        </mxCell>
        <mxCell id="teliJcFGvKFgrDgk7aVS-38" value="Готовится к доставке" style="rounded=1;whiteSpace=wrap;html=1;" vertex="1" parent="1">
          <mxGeometry x="520" y="390" width="120" height="60" as="geometry" />
        </mxCell>
        <mxCell id="teliJcFGvKFgrDgk7aVS-39" value="На доставке" style="rounded=1;whiteSpace=wrap;html=1;" vertex="1" parent="1">
          <mxGeometry x="760" y="390" width="120" height="60" as="geometry" />
        </mxCell>
        <mxCell id="teliJcFGvKFgrDgk7aVS-40" value="Доставлен" style="rounded=1;whiteSpace=wrap;html=1;" vertex="1" parent="1">
          <mxGeometry x="1000" y="390" width="120" height="60" as="geometry" />
        </mxCell>
      </root>
    </mxGraphModel>
  </diagram>
  <diagram id="6Yarxuc8tI2pEMtDQE-m" name="Диаграмма деятельности">
    <mxGraphModel dx="1239" dy="1383" grid="1" gridSize="10" guides="1" tooltips="1" connect="1" arrows="1" fold="1" page="1" pageScale="1" pageWidth="1169" pageHeight="1654" math="0" shadow="0">
      <root>
        <mxCell id="0" />
        <mxCell id="1" parent="0" />
        <mxCell id="GtKKahurEuzS48HFBhFl-7" value="" style="ellipse;html=1;shape=startState;fillColor=#000000;strokeColor=#ff0000;" vertex="1" parent="1">
          <mxGeometry x="40" y="760" width="40" height="40" as="geometry" />
        </mxCell>
        <mxCell id="GtKKahurEuzS48HFBhFl-8" value="" style="edgeStyle=orthogonalEdgeStyle;html=1;verticalAlign=bottom;endArrow=open;endSize=8;strokeColor=#ff0000;rounded=0;exitX=1;exitY=0.5;exitDx=0;exitDy=0;" edge="1" source="GtKKahurEuzS48HFBhFl-7" parent="1">
          <mxGeometry relative="1" as="geometry">
            <mxPoint x="160" y="780" as="targetPoint" />
          </mxGeometry>
        </mxCell>
        <mxCell id="GtKKahurEuzS48HFBhFl-9" value="&lt;font style=&quot;font-size: 16px;&quot;&gt;Добавление блюд&lt;/font&gt;&lt;div&gt;&lt;font size=&quot;3&quot;&gt;в корзину заказа&lt;/font&gt;&lt;/div&gt;" style="rounded=1;whiteSpace=wrap;html=1;" vertex="1" parent="1">
          <mxGeometry x="160" y="740" width="160" height="80" as="geometry" />
        </mxCell>
        <mxCell id="GtKKahurEuzS48HFBhFl-10" value="" style="endArrow=classic;html=1;rounded=0;exitX=1;exitY=0.5;exitDx=0;exitDy=0;" edge="1" parent="1" source="GtKKahurEuzS48HFBhFl-9">
          <mxGeometry width="50" height="50" relative="1" as="geometry">
            <mxPoint x="540" y="890" as="sourcePoint" />
            <mxPoint x="400" y="780" as="targetPoint" />
          </mxGeometry>
        </mxCell>
        <mxCell id="GtKKahurEuzS48HFBhFl-18" style="edgeStyle=orthogonalEdgeStyle;rounded=0;orthogonalLoop=1;jettySize=auto;html=1;" edge="1" parent="1" source="GtKKahurEuzS48HFBhFl-14" target="GtKKahurEuzS48HFBhFl-15">
          <mxGeometry relative="1" as="geometry" />
        </mxCell>
        <mxCell id="GtKKahurEuzS48HFBhFl-14" value="&lt;font size=&quot;3&quot;&gt;Подтверждение&lt;/font&gt;&lt;div&gt;&lt;font size=&quot;3&quot;&gt;заказа&lt;/font&gt;&lt;/div&gt;" style="rounded=1;whiteSpace=wrap;html=1;" vertex="1" parent="1">
          <mxGeometry x="400" y="740" width="160" height="80" as="geometry" />
        </mxCell>
        <mxCell id="GtKKahurEuzS48HFBhFl-15" value="&lt;font style=&quot;font-size: 16px;&quot;&gt;Заказ&lt;/font&gt;&lt;div&gt;&lt;font style=&quot;font-size: 16px;&quot;&gt;сформирован верно?&lt;/font&gt;&lt;/div&gt;" style="rhombus;whiteSpace=wrap;html=1;fontColor=#000000;fillColor=#ffffc0;strokeColor=#ff0000;" vertex="1" parent="1">
          <mxGeometry x="625" y="732.5" width="160" height="95" as="geometry" />
        </mxCell>
        <mxCell id="GtKKahurEuzS48HFBhFl-16" value="no" style="edgeStyle=orthogonalEdgeStyle;html=1;align=left;verticalAlign=bottom;endArrow=open;endSize=8;strokeColor=#ff0000;rounded=0;exitX=0.5;exitY=0;exitDx=0;exitDy=0;" edge="1" source="GtKKahurEuzS48HFBhFl-15" parent="1">
          <mxGeometry x="-1" relative="1" as="geometry">
            <mxPoint x="705" y="680" as="targetPoint" />
          </mxGeometry>
        </mxCell>
        <mxCell id="GtKKahurEuzS48HFBhFl-17" value="yes" style="edgeStyle=orthogonalEdgeStyle;html=1;align=left;verticalAlign=top;endArrow=open;endSize=8;strokeColor=#ff0000;rounded=0;" edge="1" source="GtKKahurEuzS48HFBhFl-15" parent="1">
          <mxGeometry x="-1" relative="1" as="geometry">
            <mxPoint x="840" y="780" as="targetPoint" />
          </mxGeometry>
        </mxCell>
        <mxCell id="GtKKahurEuzS48HFBhFl-20" style="edgeStyle=orthogonalEdgeStyle;rounded=0;orthogonalLoop=1;jettySize=auto;html=1;entryX=0.5;entryY=0;entryDx=0;entryDy=0;" edge="1" parent="1" source="GtKKahurEuzS48HFBhFl-19" target="GtKKahurEuzS48HFBhFl-14">
          <mxGeometry relative="1" as="geometry" />
        </mxCell>
        <mxCell id="GtKKahurEuzS48HFBhFl-19" value="&lt;font size=&quot;3&quot;&gt;Изменение блюд&lt;/font&gt;&lt;div&gt;&lt;font size=&quot;3&quot;&gt;в корзине&lt;/font&gt;&lt;/div&gt;" style="rounded=1;whiteSpace=wrap;html=1;" vertex="1" parent="1">
          <mxGeometry x="625" y="600" width="160" height="80" as="geometry" />
        </mxCell>
        <mxCell id="GtKKahurEuzS48HFBhFl-22" style="edgeStyle=orthogonalEdgeStyle;rounded=0;orthogonalLoop=1;jettySize=auto;html=1;entryX=0.5;entryY=0;entryDx=0;entryDy=0;" edge="1" parent="1" source="GtKKahurEuzS48HFBhFl-21" target="GtKKahurEuzS48HFBhFl-28">
          <mxGeometry relative="1" as="geometry">
            <mxPoint x="920" y="880" as="targetPoint" />
          </mxGeometry>
        </mxCell>
        <mxCell id="GtKKahurEuzS48HFBhFl-21" value="&lt;font size=&quot;3&quot;&gt;Оплата заказа&lt;/font&gt;" style="rounded=1;whiteSpace=wrap;html=1;" vertex="1" parent="1">
          <mxGeometry x="840" y="740" width="160" height="80" as="geometry" />
        </mxCell>
        <mxCell id="GtKKahurEuzS48HFBhFl-31" style="edgeStyle=orthogonalEdgeStyle;rounded=0;orthogonalLoop=1;jettySize=auto;html=1;entryX=1;entryY=0.5;entryDx=0;entryDy=0;" edge="1" parent="1" source="GtKKahurEuzS48HFBhFl-28" target="GtKKahurEuzS48HFBhFl-30">
          <mxGeometry relative="1" as="geometry" />
        </mxCell>
        <mxCell id="GtKKahurEuzS48HFBhFl-28" value="" style="rhombus;whiteSpace=wrap;html=1;" vertex="1" parent="1">
          <mxGeometry x="890" y="897.5" width="60" height="80" as="geometry" />
        </mxCell>
        <mxCell id="GtKKahurEuzS48HFBhFl-33" style="edgeStyle=orthogonalEdgeStyle;rounded=0;orthogonalLoop=1;jettySize=auto;html=1;" edge="1" parent="1" source="GtKKahurEuzS48HFBhFl-30" target="GtKKahurEuzS48HFBhFl-32">
          <mxGeometry relative="1" as="geometry" />
        </mxCell>
        <mxCell id="GtKKahurEuzS48HFBhFl-30" value="&lt;font size=&quot;3&quot;&gt;Выдача задачи курьеру&lt;/font&gt;" style="rounded=1;whiteSpace=wrap;html=1;" vertex="1" parent="1">
          <mxGeometry x="640" y="897.5" width="160" height="80" as="geometry" />
        </mxCell>
        <mxCell id="GtKKahurEuzS48HFBhFl-42" style="edgeStyle=orthogonalEdgeStyle;rounded=0;orthogonalLoop=1;jettySize=auto;html=1;entryX=1;entryY=0.5;entryDx=0;entryDy=0;" edge="1" parent="1" source="GtKKahurEuzS48HFBhFl-32" target="GtKKahurEuzS48HFBhFl-39">
          <mxGeometry relative="1" as="geometry" />
        </mxCell>
        <mxCell id="GtKKahurEuzS48HFBhFl-32" value="&lt;font size=&quot;3&quot;&gt;Доставка заказа&lt;/font&gt;" style="rounded=1;whiteSpace=wrap;html=1;" vertex="1" parent="1">
          <mxGeometry x="400" y="897.5" width="160" height="80" as="geometry" />
        </mxCell>
        <mxCell id="GtKKahurEuzS48HFBhFl-39" value="&lt;font style=&quot;font-size: 16px;&quot;&gt;Заказ доставлен?&lt;/font&gt;" style="rhombus;whiteSpace=wrap;html=1;fontColor=#000000;fillColor=#ffffc0;strokeColor=#ff0000;" vertex="1" parent="1">
          <mxGeometry x="160" y="890" width="160" height="95" as="geometry" />
        </mxCell>
        <mxCell id="GtKKahurEuzS48HFBhFl-40" value="no" style="edgeStyle=orthogonalEdgeStyle;html=1;align=left;verticalAlign=bottom;endArrow=open;endSize=8;strokeColor=#ff0000;rounded=0;exitX=0.5;exitY=1;exitDx=0;exitDy=0;" edge="1" source="GtKKahurEuzS48HFBhFl-39" parent="1">
          <mxGeometry x="-0.4218" y="5" relative="1" as="geometry">
            <mxPoint x="840" y="1080" as="targetPoint" />
            <Array as="points">
              <mxPoint x="240" y="1050" />
              <mxPoint x="240" y="1050" />
            </Array>
            <mxPoint as="offset" />
          </mxGeometry>
        </mxCell>
        <mxCell id="GtKKahurEuzS48HFBhFl-41" value="yes" style="edgeStyle=orthogonalEdgeStyle;html=1;align=left;verticalAlign=top;endArrow=open;endSize=8;strokeColor=#ff0000;rounded=0;exitX=0;exitY=0.5;exitDx=0;exitDy=0;" edge="1" source="GtKKahurEuzS48HFBhFl-39" parent="1">
          <mxGeometry x="-0.8257" y="10" relative="1" as="geometry">
            <mxPoint x="80" y="1057.5" as="targetPoint" />
            <mxPoint as="offset" />
          </mxGeometry>
        </mxCell>
        <mxCell id="GtKKahurEuzS48HFBhFl-44" value="" style="ellipse;html=1;shape=endState;fillColor=#000000;strokeColor=#ff0000;" vertex="1" parent="1">
          <mxGeometry x="60" y="1060" width="40" height="40" as="geometry" />
        </mxCell>
        <mxCell id="GtKKahurEuzS48HFBhFl-46" style="edgeStyle=orthogonalEdgeStyle;rounded=0;orthogonalLoop=1;jettySize=auto;html=1;entryX=0.5;entryY=1;entryDx=0;entryDy=0;" edge="1" parent="1" source="GtKKahurEuzS48HFBhFl-45" target="GtKKahurEuzS48HFBhFl-28">
          <mxGeometry relative="1" as="geometry" />
        </mxCell>
        <mxCell id="GtKKahurEuzS48HFBhFl-45" value="&lt;font size=&quot;3&quot;&gt;Разбирательство с курьером&lt;/font&gt;" style="rounded=1;whiteSpace=wrap;html=1;" vertex="1" parent="1">
          <mxGeometry x="840" y="1040" width="160" height="80" as="geometry" />
        </mxCell>
      </root>
    </mxGraphModel>
  </diagram>
  <diagram id="ZH4My9SQ-pIcHzUaltlB" name="Диаграмма классов">
    <mxGraphModel dx="1802" dy="2011" grid="1" gridSize="10" guides="1" tooltips="1" connect="1" arrows="1" fold="1" page="1" pageScale="1" pageWidth="1169" pageHeight="1654" math="0" shadow="0">
      <root>
        <mxCell id="0" />
        <mxCell id="1" parent="0" />
        <mxCell id="koQKafnFAOBbo9mH46HJ-1" value="Приложение" style="swimlane;fontStyle=0;align=center;verticalAlign=top;childLayout=stackLayout;horizontal=1;startSize=55;horizontalStack=0;resizeParent=1;resizeParentMax=0;resizeLast=0;collapsible=0;marginBottom=0;html=1;whiteSpace=wrap;" vertex="1" parent="1">
          <mxGeometry x="525" y="599" width="140" height="125" as="geometry" />
        </mxCell>
        <mxCell id="koQKafnFAOBbo9mH46HJ-2" value="&lt;div&gt;+Id: int&lt;/div&gt;&lt;div&gt;+Название: string&lt;/div&gt;+Версия: int" style="text;html=1;strokeColor=none;fillColor=none;align=left;verticalAlign=middle;spacingLeft=4;spacingRight=4;overflow=hidden;rotatable=0;points=[[0,0.5],[1,0.5]];portConstraint=eastwest;whiteSpace=wrap;" vertex="1" parent="koQKafnFAOBbo9mH46HJ-1">
          <mxGeometry y="55" width="140" height="45" as="geometry" />
        </mxCell>
        <mxCell id="koQKafnFAOBbo9mH46HJ-3" value="" style="line;strokeWidth=1;fillColor=none;align=left;verticalAlign=middle;spacingTop=-1;spacingLeft=3;spacingRight=3;rotatable=0;labelPosition=right;points=[];portConstraint=eastwest;" vertex="1" parent="koQKafnFAOBbo9mH46HJ-1">
          <mxGeometry y="100" width="140" height="25" as="geometry" />
        </mxCell>
        <mxCell id="koQKafnFAOBbo9mH46HJ-4" value="Курьер" style="swimlane;fontStyle=0;align=center;verticalAlign=top;childLayout=stackLayout;horizontal=1;startSize=55;horizontalStack=0;resizeParent=1;resizeParentMax=0;resizeLast=0;collapsible=0;marginBottom=0;html=1;whiteSpace=wrap;" vertex="1" parent="1">
          <mxGeometry x="735" y="831" width="180" height="225" as="geometry" />
        </mxCell>
        <mxCell id="koQKafnFAOBbo9mH46HJ-5" value="&lt;div&gt;+Id: int&lt;/div&gt;&lt;div&gt;+имя: string&lt;span style=&quot;color: rgba(0, 0, 0, 0); font-family: monospace; font-size: 0px; text-wrap: nowrap; background-color: initial;&quot;&gt;%3CmxGraphModel%3E%3Croot%3E%3CmxCell%20id%3D%220%22%2F%3E%3CmxCell%20id%3D%221%22%20parent%3D%220%22%2F%3E%3CmxCell%20id%3D%222%22%20value%3D%22%D0%9F%D1%80%D0%B8%D0%BB%D0%BE%D0%B6%D0%B5%D0%BD%D0%B8%D0%B5%22%20style%3D%22swimlane%3BfontStyle%3D0%3Balign%3Dcenter%3BverticalAlign%3Dtop%3BchildLayout%3DstackLayout%3Bhorizontal%3D1%3BstartSize%3D55%3BhorizontalStack%3D0%3BresizeParent%3D1%3BresizeParentMax%3D0%3BresizeLast%3D0%3Bcollapsible%3D0%3BmarginBottom%3D0%3Bhtml%3D1%3BwhiteSpace%3Dwrap%3B%22%20vertex%3D%221%22%20parent%3D%221%22%3E%3CmxGeometry%20x%3D%22330%22%20y%3D%22230%22%20width%3D%22140%22%20height%3D%22125%22%20as%3D%22geometry%22%2F%3E%3C%2FmxCell%3E%3CmxCell%20id%3D%223%22%20value%3D%22%26lt%3Bdiv%26gt%3B%2BId%3A%20int%26lt%3B%2Fdiv%26gt%3B%26lt%3Bdiv%26gt%3B%2B%D0%BD%D0%B0%D0%B7%D0%B2%D0%B0%D0%BD%D0%B8%D0%B5%3A%20string%26lt%3B%2Fdiv%26gt%3B%2B%D0%B2%D0%B5%D1%80%D1%81%D0%B8%D1%8F%3A%26amp%3Bnbsp%3B%22%20style%3D%22text%3Bhtml%3D1%3BstrokeColor%3Dnone%3BfillColor%3Dnone%3Balign%3Dleft%3BverticalAlign%3Dmiddle%3BspacingLeft%3D4%3BspacingRight%3D4%3Boverflow%3Dhidden%3Brotatable%3D0%3Bpoints%3D%5B%5B0%2C0.5%5D%2C%5B1%2C0.5%5D%5D%3BportConstraint%3Deastwest%3BwhiteSpace%3Dwrap%3B%22%20vertex%3D%221%22%20parent%3D%222%22%3E%3CmxGeometry%20y%3D%2255%22%20width%3D%22140%22%20height%3D%2245%22%20as%3D%22geometry%22%2F%3E%3C%2FmxCell%3E%3CmxCell%20id%3D%224%22%20value%3D%22%22%20style%3D%22line%3BstrokeWidth%3D1%3BfillColor%3Dnone%3Balign%3Dleft%3BverticalAlign%3Dmiddle%3BspacingTop%3D-1%3BspacingLeft%3D3%3BspacingRight%3D3%3Brotatable%3D0%3BlabelPosition%3Dright%3Bpoints%3D%5B%5D%3BportConstraint%3Deastwest%3B%22%20vertex%3D%221%22%20parent%3D%222%22%3E%3CmxGeometry%20y%3D%22100%22%20width%3D%22140%22%20height%3D%2225%22%20as%3D%22geometry%22%2F%3E%3C%2FmxCell%3E%3C%2Froot%3E%3C%2FmxGraphModel%3E&lt;/span&gt;&lt;/div&gt;+номер_телефона: int&lt;div&gt;&amp;nbsp;&lt;/div&gt;" style="text;html=1;strokeColor=none;fillColor=none;align=left;verticalAlign=middle;spacingLeft=4;spacingRight=4;overflow=hidden;rotatable=0;points=[[0,0.5],[1,0.5]];portConstraint=eastwest;whiteSpace=wrap;" vertex="1" parent="koQKafnFAOBbo9mH46HJ-4">
          <mxGeometry y="55" width="180" height="60" as="geometry" />
        </mxCell>
        <mxCell id="koQKafnFAOBbo9mH46HJ-6" value="" style="line;strokeWidth=1;fillColor=none;align=left;verticalAlign=middle;spacingTop=-1;spacingLeft=3;spacingRight=3;rotatable=0;labelPosition=right;points=[];portConstraint=eastwest;" vertex="1" parent="koQKafnFAOBbo9mH46HJ-4">
          <mxGeometry y="115" width="180" height="15" as="geometry" />
        </mxCell>
        <mxCell id="koQKafnFAOBbo9mH46HJ-7" value="&lt;div&gt;&lt;/div&gt;&lt;div&gt;+Прием_заказа()&lt;/div&gt;&lt;div&gt;+Отмена_принятого_заказа()&amp;nbsp;&lt;/div&gt;&lt;div&gt;+Подтверждение_доставки()&lt;/div&gt;" style="text;html=1;strokeColor=none;fillColor=none;align=left;verticalAlign=middle;spacingLeft=4;spacingRight=4;overflow=hidden;rotatable=0;points=[[0,0.5],[1,0.5]];portConstraint=eastwest;whiteSpace=wrap;" vertex="1" parent="koQKafnFAOBbo9mH46HJ-4">
          <mxGeometry y="130" width="180" height="95" as="geometry" />
        </mxCell>
        <mxCell id="koQKafnFAOBbo9mH46HJ-8" value="Клиент" style="swimlane;fontStyle=0;align=center;verticalAlign=top;childLayout=stackLayout;horizontal=1;startSize=55;horizontalStack=0;resizeParent=1;resizeParentMax=0;resizeLast=0;collapsible=0;marginBottom=0;html=1;whiteSpace=wrap;" vertex="1" parent="1">
          <mxGeometry x="255" y="831" width="220" height="225" as="geometry" />
        </mxCell>
        <mxCell id="koQKafnFAOBbo9mH46HJ-9" value="&lt;div&gt;+Id: int&lt;/div&gt;&lt;div&gt;+Имя: string&lt;span style=&quot;color: rgba(0, 0, 0, 0); font-family: monospace; font-size: 0px; text-wrap: nowrap; background-color: initial;&quot;&gt;%3CmxGraphModel%3E%3Croot%3E%3CmxCell%20id%3D%220%22%2F%3E%3CmxCell%20id%3D%221%22%20parent%3D%220%22%2F%3E%3CmxCell%20id%3D%222%22%20value%3D%22%D0%9F%D1%80%D0%B8%D0%BB%D0%BE%D0%B6%D0%B5%D0%BD%D0%B8%D0%B5%22%20style%3D%22swimlane%3BfontStyle%3D0%3Balign%3Dcenter%3BverticalAlign%3Dtop%3BchildLayout%3DstackLayout%3Bhorizontal%3D1%3BstartSize%3D55%3BhorizontalStack%3D0%3BresizeParent%3D1%3BresizeParentMax%3D0%3BresizeLast%3D0%3Bcollapsible%3D0%3BmarginBottom%3D0%3Bhtml%3D1%3BwhiteSpace%3Dwrap%3B%22%20vertex%3D%221%22%20parent%3D%221%22%3E%3CmxGeometry%20x%3D%22330%22%20y%3D%22230%22%20width%3D%22140%22%20height%3D%22125%22%20as%3D%22geometry%22%2F%3E%3C%2FmxCell%3E%3CmxCell%20id%3D%223%22%20value%3D%22%26lt%3Bdiv%26gt%3B%2BId%3A%20int%26lt%3B%2Fdiv%26gt%3B%26lt%3Bdiv%26gt%3B%2B%D0%BD%D0%B0%D0%B7%D0%B2%D0%B0%D0%BD%D0%B8%D0%B5%3A%20string%26lt%3B%2Fdiv%26gt%3B%2B%D0%B2%D0%B5%D1%80%D1%81%D0%B8%D1%8F%3A%26amp%3Bnbsp%3B%22%20style%3D%22text%3Bhtml%3D1%3BstrokeColor%3Dnone%3BfillColor%3Dnone%3Balign%3Dleft%3BverticalAlign%3Dmiddle%3BspacingLeft%3D4%3BspacingRight%3D4%3Boverflow%3Dhidden%3Brotatable%3D0%3Bpoints%3D%5B%5B0%2C0.5%5D%2C%5B1%2C0.5%5D%5D%3BportConstraint%3Deastwest%3BwhiteSpace%3Dwrap%3B%22%20vertex%3D%221%22%20parent%3D%222%22%3E%3CmxGeometry%20y%3D%2255%22%20width%3D%22140%22%20height%3D%2245%22%20as%3D%22geometry%22%2F%3E%3C%2FmxCell%3E%3CmxCell%20id%3D%224%22%20value%3D%22%22%20style%3D%22line%3BstrokeWidth%3D1%3BfillColor%3Dnone%3Balign%3Dleft%3BverticalAlign%3Dmiddle%3BspacingTop%3D-1%3BspacingLeft%3D3%3BspacingRight%3D3%3Brotatable%3D0%3BlabelPosition%3Dright%3Bpoints%3D%5B%5D%3BportConstraint%3Deastwest%3B%22%20vertex%3D%221%22%20parent%3D%222%22%3E%3CmxGeometry%20y%3D%22100%22%20width%3D%22140%22%20height%3D%2225%22%20as%3D%22geometry%22%2F%3E%3C%2FmxCell%3E%3C%2Froot%3E%3C%2FmxGraphModel%3E&lt;/span&gt;&lt;/div&gt;+НомерТелефона: int&lt;div&gt;+Адрес: string&lt;/div&gt;" style="text;html=1;strokeColor=none;fillColor=none;align=left;verticalAlign=middle;spacingLeft=4;spacingRight=4;overflow=hidden;rotatable=0;points=[[0,0.5],[1,0.5]];portConstraint=eastwest;whiteSpace=wrap;" vertex="1" parent="koQKafnFAOBbo9mH46HJ-8">
          <mxGeometry y="55" width="220" height="60" as="geometry" />
        </mxCell>
        <mxCell id="koQKafnFAOBbo9mH46HJ-10" value="" style="line;strokeWidth=1;fillColor=none;align=left;verticalAlign=middle;spacingTop=-1;spacingLeft=3;spacingRight=3;rotatable=0;labelPosition=right;points=[];portConstraint=eastwest;" vertex="1" parent="koQKafnFAOBbo9mH46HJ-8">
          <mxGeometry y="115" width="220" height="15" as="geometry" />
        </mxCell>
        <mxCell id="koQKafnFAOBbo9mH46HJ-11" value="&lt;div&gt;&lt;/div&gt;&lt;div&gt;+Добавление_Блюд_В_Заказ()&lt;/div&gt;&lt;div&gt;+Оформление_Заказа()&lt;/div&gt;&lt;div&gt;+Отслеживание_Статуса_&lt;span style=&quot;background-color: initial;&quot;&gt;Заказа()&lt;/span&gt;&lt;/div&gt;&lt;div&gt;+Оплата_Заказа()&lt;/div&gt;" style="text;html=1;strokeColor=none;fillColor=none;align=left;verticalAlign=middle;spacingLeft=4;spacingRight=4;overflow=hidden;rotatable=0;points=[[0,0.5],[1,0.5]];portConstraint=eastwest;whiteSpace=wrap;" vertex="1" parent="koQKafnFAOBbo9mH46HJ-8">
          <mxGeometry y="130" width="220" height="95" as="geometry" />
        </mxCell>
        <mxCell id="koQKafnFAOBbo9mH46HJ-12" value="" style="endArrow=none;startArrow=none;endFill=0;startFill=0;endSize=8;html=1;verticalAlign=bottom;labelBackgroundColor=none;strokeWidth=3;rounded=0;exitX=0.999;exitY=0.116;exitDx=0;exitDy=0;exitPerimeter=0;" edge="1" parent="1" source="koQKafnFAOBbo9mH46HJ-2">
          <mxGeometry width="160" relative="1" as="geometry">
            <mxPoint x="659" y="671.16" as="sourcePoint" />
            <mxPoint x="815" y="829" as="targetPoint" />
            <Array as="points">
              <mxPoint x="815" y="659" />
            </Array>
          </mxGeometry>
        </mxCell>
        <mxCell id="koQKafnFAOBbo9mH46HJ-13" value="" style="endArrow=none;startArrow=none;endFill=0;startFill=0;endSize=8;html=1;verticalAlign=bottom;labelBackgroundColor=none;strokeWidth=3;rounded=0;exitX=0.015;exitY=0.1;exitDx=0;exitDy=0;exitPerimeter=0;entryX=0.5;entryY=0;entryDx=0;entryDy=0;" edge="1" parent="1" source="koQKafnFAOBbo9mH46HJ-2" target="koQKafnFAOBbo9mH46HJ-8">
          <mxGeometry width="160" relative="1" as="geometry">
            <mxPoint x="515" y="669" as="sourcePoint" />
            <mxPoint x="371" y="839" as="targetPoint" />
            <Array as="points">
              <mxPoint x="365" y="659" />
            </Array>
          </mxGeometry>
        </mxCell>
        <mxCell id="koQKafnFAOBbo9mH46HJ-14" value="" style="endArrow=none;startArrow=none;endFill=0;startFill=0;endSize=8;html=1;verticalAlign=bottom;labelBackgroundColor=none;strokeWidth=3;rounded=0;" edge="1" parent="1">
          <mxGeometry width="160" relative="1" as="geometry">
            <mxPoint x="475" y="959" as="sourcePoint" />
            <mxPoint x="735" y="959" as="targetPoint" />
          </mxGeometry>
        </mxCell>
        <mxCell id="koQKafnFAOBbo9mH46HJ-15" value="+1" style="text;html=1;align=center;verticalAlign=middle;whiteSpace=wrap;rounded=0;" vertex="1" parent="1">
          <mxGeometry x="455" y="619" width="60" height="30" as="geometry" />
        </mxCell>
        <mxCell id="koQKafnFAOBbo9mH46HJ-16" value="+1" style="text;html=1;align=center;verticalAlign=middle;whiteSpace=wrap;rounded=0;" vertex="1" parent="1">
          <mxGeometry x="675" y="619" width="60" height="30" as="geometry" />
        </mxCell>
        <mxCell id="koQKafnFAOBbo9mH46HJ-17" value="+1..*" style="text;html=1;align=center;verticalAlign=middle;whiteSpace=wrap;rounded=0;" vertex="1" parent="1">
          <mxGeometry x="305" y="799" width="60" height="30" as="geometry" />
        </mxCell>
        <mxCell id="koQKafnFAOBbo9mH46HJ-18" value="+1..*" style="text;html=1;align=center;verticalAlign=middle;whiteSpace=wrap;rounded=0;" vertex="1" parent="1">
          <mxGeometry x="815" y="799" width="60" height="30" as="geometry" />
        </mxCell>
        <mxCell id="koQKafnFAOBbo9mH46HJ-19" value="+1" style="text;html=1;align=center;verticalAlign=middle;whiteSpace=wrap;rounded=0;" vertex="1" parent="1">
          <mxGeometry x="485" y="929" width="60" height="30" as="geometry" />
        </mxCell>
        <mxCell id="koQKafnFAOBbo9mH46HJ-20" value="+1" style="text;html=1;align=center;verticalAlign=middle;whiteSpace=wrap;rounded=0;" vertex="1" parent="1">
          <mxGeometry x="665" y="929" width="60" height="30" as="geometry" />
        </mxCell>
      </root>
    </mxGraphModel>
  </diagram>
</mxfile>
